OpenSim_Sub03_CSBaseline_RCS.mot
version=1
nRows=64
nColumns=11
inDegrees=no
endheader
time	Top_Thigh	Med_Thigh	Bot_Thigh	Top_Shank	2nd_Top_Shank	2nd_Bot_Shank	Bot_Shank	BNOx	BNOy	BNOZ
46.44000000	9872.43204514	9829.13885661	10589.49724097	10818.38613992	12116.21280684	13041.22712496	14404.26277488	-9.90484565	-76.82571660	180.12702574
46.45000000	9885.23303920	9837.59253768	10591.17714329	10817.28388880	12090.33452041	13030.51995794	14382.33377391	-5.94319869	-78.22787406	181.65262975
46.46000000	9895.36432299	9844.00417452	10591.21555702	10816.19444375	12067.92647042	13023.75560499	14361.03946277	6.50921017	-79.18395466	175.22873275
46.47000000	9902.13367429	9847.97805983	10589.37848061	10815.34261758	12050.39867379	13022.11031075	14341.83754522	29.03663637	-79.57904579	159.16668739
46.48000000	9905.62983786	9849.67566702	10585.90802000	10814.77475562	12037.93247970	13025.02869792	14324.92942369	60.53565453	-79.42666809	134.41598586
46.49000000	9906.29159018	9849.50819953	10581.25967392	10814.45721354	12030.15854480	13031.17927111	14309.95342257	98.69821278	-78.79790637	103.10854232
46.50000000	9904.55935881	9847.88803879	10575.88994768	10814.35596970	12026.70492814	13039.22687400	14296.54521025	141.21057704	-77.76411697	67.38184840
46.51000000	9900.87357130	9845.22756621	10570.25534657	10814.43700245	12027.19968877	13047.83635026	14284.34045511	185.75901323	-76.39665623	29.37339574
46.52000000	9895.67465522	9841.93916321	10564.81237590	10814.66629015	12031.27088573	13055.67254359	14272.97482554	230.02978727	-74.76688049	-8.77932406
46.53000000	9889.40303813	9838.43521122	10560.01754096	10815.00981116	12038.54657808	13061.40029764	14262.08398991	271.70916508	-72.94614610	-44.93881935
46.54000000	9882.49914759	9835.12809165	10556.32734706	10815.43354385	12048.65482487	13063.68445611	14251.30361661	308.48341258	-71.00580939	-76.96759851
46.55000000	9875.40341117	9832.43018592	10554.19829949	10815.90346656	12061.22368513	13061.18986267	14240.26937402	338.03879570	-69.01722670	-102.72816991
46.56000000	9868.52318187	9830.69550315	10553.99074707	10816.38532097	12075.76920319	13052.80472850	14228.67416259	358.38295268	-67.04744971	-120.37555591
46.57000000	9862.02137119	9829.84664468	10555.35438216	10816.84309947	12090.97956444	13039.06809021	14216.63386357	369.89866413	-65.13171602	-130.22663991
46.58000000	9855.95133120	9829.61285359	10557.62037875	10817.24001044	12105.17190545	13021.25888926	14204.45393943	374.03325647	-63.29100404	-133.56725788
46.59000000	9850.36589717	9829.72246092	10560.11840841	10817.53925855	12116.66161256	13000.65955720	14192.44074691	372.23907758	-61.54622492	-131.68781630
46.60000000	9845.31790437	9829.90379769	10562.17814270	10817.70404845	12123.76407213	12978.55252562	14180.90064274	365.96847533	-59.91828983	-125.87872166
46.61000000	9840.86018809	9829.88519492	10563.12925318	10817.69758482	12124.79467049	12956.22022608	14170.13998366	356.67379760	-58.42810990	-117.43038043
46.62000000	9837.04558360	9829.39498364	10562.30141140	10817.48307234	12118.06879400	12934.94509016	14160.46512639	345.80739227	-57.09659631	-107.63319911
46.63000000	9833.92692617	9828.16149487	10559.02428894	10817.02371566	12101.90182899	12916.00954943	14152.18242766	334.82160720	-55.94466020	-97.77758419
46.64000000	9831.55705109	9825.91305964	10552.62755736	10816.28271947	12074.60916182	12900.69603546	14145.59824422	325.16879028	-54.99321274	-89.15394213
46.65000000	9829.97338826	9822.41950583	10542.54973901	10815.23173113	12034.80734137	12890.16021387	14140.98347679	318.18950947	-54.26116456	-82.95283319
46.66000000	9829.05432848	9817.87905894	10529.35309014	10813.92955734	11984.22200276	12884.24906751	14138.24299197	314.07035997	-53.74677388	-79.33404333
46.67000000	9828.58443799	9812.74267606	10514.26280964	10812.48642410	11926.41297517	12882.03752661	14137.06571587	312.31715499	-53.43611507	-77.84925698
46.68000000	9828.34707038	9807.46458081	10498.51266486	10811.01322200	11864.96379444	12882.59054274	14137.13778361	312.42690873	-53.31510503	-78.04229900
46.69000000	9828.12557924	9802.49899678	10483.33642312	10809.62084162	11803.45799642	12884.97306744	14138.14533029	313.89663538	-53.36966066	-79.45699421
46.70000000	9827.70331816	9798.30014760	10469.96785177	10808.42017356	11745.47911694	12888.25005230	14139.77449104	316.22334914	-53.58569886	-81.63716745
46.71000000	9826.86364070	9795.32225687	10459.64071815	10807.52210841	11694.61069185	12891.48644886	14141.71140095	318.90406420	-53.94913652	-84.12664354
46.72000000	9825.38990047	9794.01954821	10453.58878958	10807.03753674	11654.43625699	12893.74720870	14143.64219516	321.43579478	-54.44589054	-86.46924733
46.73000000	9823.10398676	9794.78429982	10452.86630316	10807.05950636	11628.09595601	12894.25040666	14145.28311108	323.36752035	-55.06127079	-88.25689045
46.74000000	9820.11259203	9797.55097463	10457.20065518	10807.54919564	11615.45298707	12893.34579438	14146.57286112	324.63227646	-55.77610070	-89.43687604
46.75000000	9816.65005830	9802.04884141	10465.72454797	10808.40867871	11614.90181168	12891.89034436	14147.54987163	325.33523368	-56.56919290	-90.11579475
46.76000000	9812.95132973	9808.00620104	10477.56787871	10809.53975088	11624.82996334	12890.74342168	14148.25303931	325.58237455	-57.41935050	-90.40098861
46.77000000	9809.25135049	9815.15135439	10491.86054456	10810.84420747	11643.62497554	12890.76439140	14148.72126084	325.47968161	-58.30537664	-90.39979963
46.78000000	9805.78506472	9823.21260233	10507.73244270	10812.22384382	11669.67438179	12892.81261858	14148.99343293	325.13313740	-59.20607446	-90.21956983
46.79000000	9802.78741659	9831.91824574	10524.31347031	10813.58045525	11701.36571559	12897.74746829	14149.10845226	324.64872446	-60.10024708	-89.96764123
46.80000000	9800.49335026	9840.99658550	10540.73352454	10814.81583707	11737.08651043	12906.42830559	14149.10521553	324.13242532	-60.96669764	-89.75135585
46.81000000	9799.13780988	9850.17592246	10556.12250258	10815.83178462	11775.22429983	12919.71449556	14149.02261943	323.69022253	-61.78422927	-89.67805570
46.82000000	9798.92082382	9859.20646595	10569.70205781	10816.54282764	11814.23175906	12938.25286595	14148.89625770	323.41642837	-62.53351131	-89.84166045
46.83000000	9799.78437094	9868.00034225	10581.37197932	10816.95761133	11853.04300200	12961.11946103	14148.73731311	323.31910467	-63.20900555	-90.23689011
46.84000000	9801.55477155	9876.54224934	10591.33599868	10817.12696368	11890.80792470	12986.68629524	14148.54602736	323.36765551	-63.81135561	-90.81400315
46.85000000	9804.05780039	9884.81722749	10599.79928112	10817.10191165	11926.67744104	13013.32206213	14148.32259056	323.53130267	-64.34123426	-91.52304830
46.86000000	9807.11923222	9892.81031701	10606.96699188	10816.93348223	11959.80246494	13039.39545525	14148.06719280	323.77926790	-64.79931429	-92.31407429
46.87000000	9810.56484178	9900.50655817	10613.04429619	10816.67270237	11989.33391026	13063.27516816	14147.78002418	324.08077296	-65.18626846	-93.13712986
46.88000000	9814.22040382	9907.89099127	10618.23635931	10816.37059904	12014.42269092	13083.32989440	14147.46127481	324.40503961	-65.50276955	-93.94226374
46.89000000	9817.91169309	9914.94865660	10622.74834646	10816.07819923	12034.21972081	13097.92832753	14147.11113477	324.72128960	-65.74949034	-94.67952466
46.90000000	9821.47155338	9921.66303824	10626.77482383	10815.84311854	12047.97254068	13105.58441274	14146.73019492	325.00114318	-65.92775952	-95.30307721
46.91000000	9824.80580668	9928.00155473	10630.40093688	10815.67775506	12055.92622996	13106.31161724	14146.32318323	325.24098171	-66.04567721	-95.80957636
46.92000000	9827.86332817	9933.92214680	10633.64727878	10815.57373043	12058.91436234	13101.00804580	14145.89726838	325.45179426	-66.11533832	-96.22074417
46.93000000	9830.59354950	9939.38263265	10636.53360832	10815.52239776	12057.77811769	13090.58323697	14145.45965058	325.64475872	-66.14888939	-96.55862666
46.94000000	9832.94590232	9944.34083052	10639.07968433	10815.51511016	12053.35867590	13075.94672931	14145.01753004	325.83105296	-66.15847696	-96.84526987
46.95000000	9834.86981827	9948.75455861	10641.30526562	10815.54322073	12046.49721686	13058.00806138	14144.57810698	326.02185485	-66.15624757	-97.10271984
46.96000000	9836.31472900	9952.58163515	10643.23011101	10815.59808259	12038.03492046	13037.67677174	14144.14858161	326.22834229	-66.15434775	-97.35302259
46.97000000	9837.23006615	9955.77987834	10644.87397932	10815.67104884	12028.81296657	13015.86239894	14143.73615416	326.46169315	-66.16492404	-97.61822416
46.98000000	9837.56526136	9958.30710643	10646.25662935	10815.75347259	12019.67253510	12993.47448155	14143.34802483	326.73308530	-66.20012299	-97.92037059
46.99000000	9837.26974629	9960.12113761	10647.39781992	10815.83670694	12011.45480591	12971.42255812	14142.99139384	327.05369663	-66.27209113	-98.28150791
47	9836.29295257	9961.17979011	10648.31730985	10815.91210501	12005.00095890	12950.61616721	14142.67346140	327.43470502	-66.39297501	-98.72368214
47.01000000	9834.58431186	9961.44088215	10649.03485796	10815.97101991	12001.15217395	12931.96484739	14142.40142774	327.88728834	-66.57492115	-99.26893933
47.02000000	9832.09325579	9960.86223195	10649.57022305	10816.00480473	12000.74963095	12916.37813720	14142.18249306	328.42262447	-66.83007610	-99.93932551
47.03000000	9828.76921601	9959.40165773	10649.94316395	10816.00481259	12004.63450978	12904.76557522	14142.02385757	329.05189130	-67.17058640	-100.75688671
47.04000000	9824.63705746	9957.07550027	10650.17998538	10815.96686973	12013.38596318	12897.89336416	14141.93129310	329.78800432	-67.60366312	-101.74130632
47.05000000	9820.27914411	9954.33261886	10650.35537050	10815.91986166	12025.64659938	12895.46836533	14141.90001468	330.65672112	-68.10004117	-102.89480637
47.06000000	9816.52771270	9951.81572881	10650.56568579	10815.90749114	12039.19106167	12896.72264011	14141.92050574	331.68955518	-68.61410671	-104.21178262
47.07000000	9814.21617859	9950.16845985	10650.90740003	10815.97353084	12051.78989916	12900.88601022	14141.98322741	332.91804710	-69.10016880	-105.68659395
